Coordinates
version=1
nRows=26
nColumns=24
inDegrees=yes

Units are S.I. units (second, meters, Newtons, ...)
If the header above contains a line with 'inDegrees', this indicates whether rotational values are in degrees (yes) or radians (no).

endheader
time	pelvis_tilt	pelvis_list	pelvis_rotation	pelvis_tx	pelvis_ty	pelvis_tz	hip_flexion_r	hip_adduction_r	hip_rotation_r	knee_angle_r	ankle_angle_r	subtalar_angle_r	mtp_angle_r	hip_flexion_l	hip_adduction_l	hip_rotation_l	knee_angle_l	ankle_angle_l	subtalar_angle_l	mtp_angle_l	lumbar_extension	lumbar_bending	lumbar_rotation
      0.56666667	      6.50494341	     -5.63174389	     -3.29507291	     -0.11057832	      0.72421086	     -0.28461282	     -9.73359924	      8.46250414	     -4.21675498	    -18.97064417	     27.51072514	      0.48965689	      0.00000000	     25.26645028	    -11.81248220	    -26.15762741	    -20.19759315	      7.06234536	     -3.55279364	      0.00000000	      0.00000000	      0.00000000	      0.00000000
      0.57333333	      6.41886198	     -5.47441494	     -3.64363203	     -0.10235751	      0.72295138	     -0.28457727	    -10.17734263	      8.06316691	     -4.31688246	    -19.35495990	     28.09614442	      1.13358137	      0.00000000	     24.92765514	    -11.31958394	    -27.24375377	    -17.38806928	      7.22472886	     -2.10660077	      0.00000000	      0.00000000	      0.00000000	      0.00000000
      0.58000000	      6.11133270	     -5.49112318	     -3.85271979	     -0.09421430	      0.72137732	     -0.28462402	    -10.38542140	      7.94511689	     -4.30898136	    -19.72165452	     28.37728830	      1.28174444	      0.00000000	     24.97142385	    -10.90060205	    -27.58802920	    -14.86243535	      7.17779430	     -1.21284909	      0.00000000	      0.00000000	      0.00000000	      0.00000000
      0.58666667	      5.79279678	     -5.52234373	     -4.00900484	     -0.08595912	      0.71977442	     -0.28463461	    -10.59184117	      7.86582339	     -4.28784426	    -20.07178752	     28.59725385	      1.39058616	      0.00000000	     25.07945495	    -10.49750471	    -27.61918700	    -12.64168586	      7.16168750	     -0.43737232	      0.00000000	      0.00000000	      0.00000000	      0.00000000
      0.59333333	      5.53414970	     -5.51323639	     -4.21801531	     -0.07757967	      0.71828326	     -0.28464441	    -10.80552771	      7.71812469	     -4.21087966	    -20.54678002	     28.78273283	      1.53422722	      0.00000000	     25.10103456	    -10.08409312	    -27.52621916	    -10.69067205	      7.14517391	      0.27245534	      0.00000000	      0.00000000	      0.00000000	      0.00000000
      0.60000000	      5.50551964	     -5.28283504	     -4.56867860	     -0.06894479	      0.71711069	     -0.28460011	    -11.17455018	      7.20500819	     -4.26463791	    -21.22286069	     29.14552027	      2.13485184	      0.00000000	     24.76226582	     -9.50493467	    -27.70890772	     -8.93414084	      7.05621824	      0.95168081	      0.00000000	      0.00000000	      0.00000000	      0.00000000
      0.60666667	      5.31086207	     -5.32475693	     -4.73384874	     -0.06037259	      0.71570852	     -0.28448834	    -11.42106537	      7.13349144	     -4.09354106	    -21.79881408	     29.11958711	      2.17303990	      0.00000000	     24.86380125	     -9.25493889	    -27.13256319	     -7.90106776	      7.19432796	      1.35642756	      0.00000000	      0.00000000	      0.00000000	      0.00000000
      0.61333333	      5.28964665	     -5.00110477	     -5.00665456	     -0.05134951	      0.71469392	     -0.28444132	    -11.76537872	      6.52720698	     -4.18927493	    -22.53761824	     29.23073009	      2.66799041	      0.00000000	     24.54090890	     -8.61595238	    -26.81502419	     -6.83314325	      7.08097143	      1.51192040	      0.00000000	      0.00000000	      0.00000000	      0.00000000
      0.62000000	      5.19696283	     -4.90465283	     -5.20319547	     -0.04235498	      0.71360814	     -0.28419473	    -12.09210647	      6.28587749	     -3.94948371	    -23.18968801	     29.04957270	      2.70418064	      0.00000000	     24.61667980	     -8.39049570	    -26.25069136	     -6.71170833	      7.16178326	      1.68347739	      0.00000000	      0.00000000	      0.00000000	      0.00000000
      0.62666667	      5.14530470	     -4.76105880	     -5.47729681	     -0.03325175	      0.71265718	     -0.28395149	    -12.29946556	      5.92095264	     -3.81502593	    -24.12954121	     28.67685497	      2.74380683	      0.00000000	     24.48479223	     -8.09425955	    -25.48109084	     -6.59930859	      7.36020163	      1.79461183	      0.00000000	      0.00000000	      0.00000000	      0.00000000
      0.63333333	      5.07683181	     -4.55917073	     -5.77477295	     -0.02378736	      0.71186285	     -0.28359689	    -12.63213381	      5.50487256	     -3.54412973	    -24.80955813	     28.37007837	      2.82331711	      0.00000000	     24.44955903	     -7.84817636	    -24.80950615	     -7.00720538	      7.37774344	      1.85598130	      0.00000000	      0.00000000	      0.00000000	      0.00000000
      0.64000000	      5.21472692	     -4.36257053	     -5.98324151	     -0.01457308	      0.71117247	     -0.28348564	    -12.80328808	      4.99775821	     -3.64419254	    -26.16284296	     27.51026356	      3.04152528	      0.00000000	     24.22094782	     -7.52426931	    -23.81832621	     -7.61412501	      7.58788953	      1.41095434	      0.00000000	      0.00000000	      0.00000000	      0.00000000
      0.64666667	      5.23762466	     -4.10976812	     -6.27529888	     -0.00486147	      0.71062832	     -0.28314937	    -13.10897986	      4.50521768	     -3.29998071	    -27.05084040	     27.00390338	      3.20045092	      0.00000000	     24.09024055	     -7.24127884	    -22.96094283	     -8.49745257	      7.49687884	      1.35764092	      0.00000000	      0.00000000	      0.00000000	      0.00000000
      0.65333333	      5.15002498	     -3.99731677	     -6.25017964	      0.00438935	      0.70977588	     -0.28337026	    -12.88291266	      4.06244335	     -3.87175470	    -28.61356247	     25.86365873	      3.85827361	      0.00000000	     24.20686864	     -6.86057488	    -20.97581213	     -9.49566883	      6.72641903	     -1.19442722	      0.00000000	      0.00000000	      0.00000000	      0.00000000
      0.66000000	      5.37056005	     -3.82039577	     -6.53506135	      0.01395531	      0.70946462	     -0.28314708	    -13.09110744	      3.53500886	     -3.74498102	    -29.97896959	     24.82546765	      4.07633312	      0.00000000	     23.97333990	     -6.66587570	    -20.13031884	    -10.80728692	      6.52176584	     -1.35320954	      0.00000000	      0.00000000	      0.00000000	      0.00000000
      0.66666667	      5.14498717	     -3.66753012	     -6.57820538	      0.02350543	      0.70873407	     -0.28337260	    -12.66076006	      3.04499454	     -4.10863364	    -31.56304786	     23.35782824	      4.59433276	      0.00000000	     24.24994154	     -6.29636146	    -18.37987388	    -12.07074720	      5.48698322	     -3.42489775	      0.00000000	      0.00000000	      0.00000000	      0.00000000
      0.67333333	      5.43083471	     -3.51952447	     -6.80839125	      0.03308783	      0.70862292	     -0.28332041	    -12.75100748	      2.48340137	     -4.14319536	    -33.14567165	     21.89106417	      4.90217929	      0.00000000	     23.98671336	     -6.09321032	    -17.56218756	    -13.51481605	      5.08705515	     -3.58427755	      0.00000000	      0.00000000	      0.00000000	      0.00000000
      0.68000000	      5.09101348	     -3.30669045	     -6.77626683	      0.04263524	      0.70796938	     -0.28380604	    -11.99717193	      1.87545107	     -4.69174085	    -34.92989967	     19.98251376	      5.48949530	      0.00000000	     24.39226337	     -5.59476920	    -15.79064260	    -14.72533972	      3.64397658	     -5.85116047	      0.00000000	      0.00000000	      0.00000000	      0.00000000
      0.68666667	      5.35975842	     -3.12968320	     -6.94819238	      0.05220187	      0.70806347	     -0.28398788	    -11.86167515	      1.20014261	     -4.94559639	    -36.68710560	     17.96243657	      5.86699100	      0.00000000	     24.14316219	     -5.31919127	    -15.07027921	    -16.07058316	      3.06375686	     -6.05489060	      0.00000000	      0.00000000	      0.00000000	      0.00000000
      0.69333333	      5.61133474	     -2.94611318	     -7.06552573	      0.06160019	      0.70817439	     -0.28424932	    -11.58345981	      0.51683833	     -5.23574658	    -38.57753539	     15.86708508	      6.21286437	      0.00000000	     23.92002793	     -4.99571281	    -14.25197999	    -17.34804041	      2.42819955	     -6.33698257	      0.00000000	      0.00000000	      0.00000000	      0.00000000
      0.70000000	      4.85016645	     -2.51209098	     -6.99691452	      0.07092188	      0.70749408	     -0.28518313	     -9.94764828	     -0.40186677	     -5.94411023	    -40.75227346	     13.11104298	      6.56747745	      0.00000000	     24.65855825	     -4.16826336	    -12.38071576	    -18.11618782	      0.28769653	     -9.60211678	      0.00000000	      0.00000000	      0.00000000	      0.00000000
      0.70666667	      4.78807620	     -2.15622695	     -7.02632924	      0.08017115	      0.70755858	     -0.28580983	     -9.06195306	     -1.31915959	     -6.43754885	    -42.83504855	     10.37973955	      6.72469083	      0.00000000	     24.69457411	     -3.57729020	    -11.40909177	    -19.08822183	     -0.75463611	    -10.83874401	      0.00000000	      0.00000000	      0.00000000	      0.00000000
      0.71333333	      4.71943272	     -1.78911321	     -7.02430541	      0.08933543	      0.70769265	     -0.28648536	     -8.08116469	     -2.24722859	     -6.91881928	    -44.94977562	      7.45451864	      6.57506028	      0.00000000	     24.73845000	     -2.98833838	    -10.56318053	    -20.04291043	     -1.53841467	    -11.77485715	      0.00000000	      0.00000000	      0.00000000	      0.00000000
      0.72000000	      4.90392785	     -1.45745042	     -7.02046271	      0.09843225	      0.70816068	     -0.28715623	     -7.32891448	     -3.20858959	     -7.40018507	    -47.02421977	      4.41353522	      6.64002646	      0.00000000	     24.50878491	     -2.46257833	    -10.00842253	    -21.03099279	     -1.74930483	    -12.16466440	      0.00000000	      0.00000000	      0.00000000	      0.00000000
      0.72666667	      4.48563547	     -1.08435209	     -7.01598594	      0.10711598	      0.70815597	     -0.28794274	     -5.69064320	     -4.05177161	     -7.66965322	    -49.29916614	      1.09986220	      5.63237092	      0.00000000	     24.83568863	     -1.83071735	     -8.96701002	    -21.76273886	     -2.77051657	    -14.08405543	      0.00000000	      0.00000000	      0.00000000	      0.00000000
      0.73333333	      4.44364814	     -0.63839657	     -6.97468520	      0.11588828	      0.70858768	     -0.28870763	     -4.47432777	     -5.04326372	     -7.97438309	    -51.44736178	     -2.08860260	      4.80405391	      0.00000000	     24.73836688	     -1.15223525	     -8.37383228	    -22.52300139	     -3.01732058	    -14.94000820	      0.00000000	      0.00000000	      0.00000000	      0.00000000
